# xmcd
#
# Track frame offsets: 
#        150
#        13336
#        31070
#        46081
#        59615
#        78856
#        97279
#        113696
#        129010
#        142256
#        170969
#        187587
#        209809
#        230464
#        243223
#        257204
#        269550
#        285799
#
# Disc length: 3972 seconds
#
# Revision: 0
# Processed by: cddbd v1.5.2PL0 Copyright (c) Steve Scherf et al.
# Submitted via: ExactAudioCopy v0.99pb4
#
DISCID=010f8212
DTITLE=Various Artist - No1 Love Album CD1
DYEAR=2007
DGENRE=Pop
TTITLE0=Dolly Parton - I Will Always Love You
TTITLE1=Bangles - Eternal Flame
TTITLE2=Nilsson - Without You
TTITLE3=John Denver - Annie's Song
TTITLE4=Michael Bolton - How Am I Supposed To Live Without You
TTITLE5=Marvin Gaye - Sexual Healing
TTITLE6=Earth, Wind and Fire - After The Love Has Gone
TTITLE7=Harold Melvin and The Blue Notes - If You Don't Know Me By Now
TTITLE8=Three Degrees - When Will I See You Again
TTITLE9=Odyssey - Inside Out
TTITLE10=Emotions - Best Of My Love
TTITLE11=Isley Jasper Isley - Caravan Of Love
TTITLE12=Champaign - How 'Bout Us
TTITLE13=Bobby Vinton - Blue Velvet
TTITLE14=Johnny Logan - Hold Me Now
TTITLE15=Deniece Williams and Johnny Mathis - You're All I Need To Get B
TTITLE15=y
TTITLE16=Art Garfunkel - I Only Have Eyes For You
TTITLE17=Tammy Wynette - Stand By Your Man
EXTD=
EXTT0=
EXTT1=
EXTT2=
EXTT3=
EXTT4=
EXTT5=
EXTT6=
EXTT7=
EXTT8=
EXTT9=
EXTT10=
EXTT11=
EXTT12=
EXTT13=
EXTT14=
EXTT15=
EXTT16=
EXTT17=
PLAYORDER=
